<?xml version="1.0" standalone="no"?>
<!DOCTYPE svg PUBLIC "-//W3C//DTD SVG 20010904//EN"
 "http://www.w3.org/TR/2001/REC-SVG-20010904/DTD/svg10.dtd">
<svg version="1.0" xmlns="http://www.w3.org/2000/svg"
 width="512.000000pt" height="512.000000pt" viewBox="0 0 512.000000 512.000000"
 preserveAspectRatio="xMidYMid meet">

<g transform="translate(0.000000,512.000000) scale(0.100000,-0.100000)"
fill="#000000" stroke="none">
<path d="M570 5105 c-233 -47 -433 -214 -520 -435 -41 -103 -50 -186 -50 -446
l0 -244 2561 0 2561 0 -4 278 c-5 302 -10 335 -68 458 -87 180 -254 321 -455
381 -57 17 -167 18 -2010 20 -1578 1 -1962 -1 -2015 -12z"/>
<path d="M0 3200 l0 -500 745 0 745 0 0 500 0 500 -745 0 -745 0 0 -500z"/>
<path d="M1780 3200 l0 -500 780 0 780 0 0 500 0 500 -780 0 -780 0 0 -500z"/>
<path d="M3630 3200 l0 -500 745 0 745 0 0 500 0 500 -745 0 -745 0 0 -500z"/>
<path d="M0 1920 l0 -500 745 0 745 0 0 500 0 500 -745 0 -745 0 0 -500z"/>
<path d="M1780 1920 l0 -500 780 0 780 0 0 500 0 500 -780 0 -780 0 0 -500z"/>
<path d="M3630 1920 l0 -500 745 0 745 0 0 500 0 500 -745 0 -745 0 0 -500z"/>
<path d="M2 863 c5 -307 10 -339 74 -468 87 -177 253 -314 450 -372 51 -15
118 -18 511 -21 l453 -3 0 570 0 571 -746 0 -746 0 4 -277z"/>
<path d="M1780 570 l0 -570 780 0 780 0 0 570 0 570 -780 0 -780 0 0 -570z"/>
<path d="M3630 569 l0 -570 453 4 c500 4 501 4 642 73 177 86 314 253 371 449
14 48 18 113 21 338 l5 277 -746 0 -746 0 0 -571z"/>
</g>
</svg>
